# xmcd
#
# Track frame offsets: 
#        150
#        11606
#        25194
#        42446
#        54912
#        67671
#        83592
#        98789
#        113373
#        131879
#        145021
#        166564
#        186707
#
# Disc length: 2693 seconds
#
# Revision: 0
# Processed by: cddbd v1.5.2PL0 Copyright (c) Steve Scherf et al.
# Submitted via: ExactAudioCopy v1.3
#
DISCID=9b0a830d
DTITLE=Magic Sam - The Magic Sam Legacy
DYEAR=1997
DGENRE=Chicago Blues
TTITLE0=I Feel So Good
TTITLE1=Lookin' Good
TTITLE2=Walkin' By Myself
TTITLE3=Hoochie Coochie Man
TTITLE4=That Ain't It
TTITLE5=That's All I Need
TTITLE6=What Have I Done Wrong
TTITLE7=I Just Want A Little Bit
TTITLE8=Everything's Gonna Be All Right
TTITLE9=Keep On Doin' What You're Doin'
TTITLE10=Blues For Odie Payne
TTITLE11=Easy Baby
TTITLE12=Keep On Lovin' Me Baby
EXTD=
EXTT0=
EXTT1=
EXTT2=
EXTT3=
EXTT4=
EXTT5=
EXTT6=
EXTT7=
EXTT8=
EXTT9=
EXTT10=
EXTT11=
EXTT12=
PLAYORDER=
